# xmcd
#
# Track frame offsets: 
#        225
#        4446
#        22127
#        56690
#        78086
#        86543
#        104585
#        127390
#        145603
#        158571
#        166289
#
# Disc length: 2485 seconds
#
# Revision: 8
# Processed by: cddbd v1.5.2PL0 Copyright (c) Steve Scherf et al.
# Submitted via: ExactAudioCopy v0.99pb4
#
DISCID=8e09b20b
DTITLE=Tarwater - Animals, Suns and Atoms
DYEAR=2000
DGENRE=Electronic
TTITLE0=K.R.? L.E.G.
TTITLE1=All Of The Ants Left Paris
TTITLE2=Noon
TTITLE3=The Trees
TTITLE4=Dauphin Sun
TTITLE5=At Low Frequency
TTITLE6=Song Of The Moth
TTITLE7=Early Risers
TTITLE8=Babyuniverse
TTITLE9=Somewhere
TTITLE10=Seven Ways To Fake A Perfect Skin
EXTD=
EXTT0=
EXTT1=
EXTT2=
EXTT3=
EXTT4=
EXTT5=
EXTT6=
EXTT7=
EXTT8=
EXTT9=
EXTT10=
PLAYORDER=
